<svg width="125" height="125" viewBox="0 0 125 125" fill="none" xmlns="http://www.w3.org/2000/svg">
<path fill-rule="evenodd" clip-rule="evenodd" d="M59.7368 0H65V27.7446H59.7368V0ZM62.5 92.9978C78.4598 92.9978 91.3979 79.8333 91.3979 63.5941C91.3979 47.3549 78.4598 34.1904 62.5 34.1904C46.5402 34.1904 33.6021 47.3549 33.6021 63.5941C33.6021 79.8333 46.5402 92.9978 62.5 92.9978ZM62.6267 87.5813C75.5766 87.5813 86.0746 76.8996 86.0746 63.7231C86.0746 50.5465 75.5766 39.8648 62.6267 39.8648C49.6769 39.8648 39.1789 50.5465 39.1789 63.7231C39.1789 76.8996 49.6769 87.5813 62.6267 87.5813ZM109.29 17.5443L105.489 13.6761L86.2903 33.2106L90.092 37.0788L109.29 17.5443ZM88.4409 91.6691L92.2425 87.8009L111.441 107.335L107.639 111.203L88.4409 91.6691ZM17.2425 13.6762L13.4409 17.5443L32.6392 37.0788L36.4408 33.2106L17.2425 13.6762ZM97.8947 66.5274V60.8592H125V66.5274H97.8947ZM32.6774 89.4809L28.8757 85.6127L9.67742 105.147L13.4791 109.015L32.6774 89.4809ZM0 63.8425V58.1742H27.1053V63.8425H0ZM65 97.2554H59.7368V125H65V97.2554Z" fill="#F4EE55"/>
</svg>
