<svg width="227" height="182" viewBox="0 0 227 182" fill="none" xmlns="http://www.w3.org/2000/svg">
<path d="M60.4466 143.416L61.4714 160.409C63.1262 184.78 32.1249 175.443 48.6002 157.259L60.4466 143.416Z" stroke="#577AF3" stroke-width="5" stroke-linecap="round" stroke-linejoin="round"/>
<path d="M108.17 145.416L109.195 162.409C110.85 186.78 79.8486 177.443 96.3239 159.259L108.17 145.416Z" stroke="#577AF3" stroke-width="5" stroke-linecap="round" stroke-linejoin="round"/>
<path fill-rule="evenodd" clip-rule="evenodd" d="M53.6364 0H58.3621V27.7446H53.6364V0ZM78.7419 78C80.8573 73.7426 82.0641 68.8281 82.0641 63.5941C82.0641 47.3549 70.4473 34.1904 56.1173 34.1904C41.7874 34.1904 30.1706 47.3549 30.1706 63.5941C30.1706 68.8281 31.3774 73.7426 33.4928 78H39.3618C36.7341 74.0191 35.1779 69.077 35.1779 63.7231C35.1779 50.5465 44.6037 39.8648 56.2311 39.8648C67.8585 39.8648 77.2844 50.5465 77.2844 63.7231C77.2844 69.077 75.7282 74.0191 73.1005 78H78.7419ZM98.1293 17.5443L94.7159 13.6761L77.4781 33.2106L80.8916 37.0788L98.1293 17.5443ZM12.0682 17.5443L15.4817 13.6762L32.7194 33.2106L29.306 37.0788L12.0682 17.5443ZM29.3403 89.4809L25.9269 85.6127L8.68912 105.147L12.1025 109.015L29.3403 89.4809ZM0 63.8425V58.1742H24.3372V63.8425H0Z" fill="#F4EE55"/>
<path d="M176.044 79.5595C225.876 57.5595 233.508 124.623 207.021 124.779C205.225 125.179 100.473 124.946 41.3623 124.779C7.96101 124.694 25.2008 55.7786 77.7264 79.5595C106.01 20.2786 161.678 33.7786 176.044 79.5595Z" stroke="#A8A6A6" stroke-width="10" stroke-linecap="round" stroke-linejoin="round"/>
<path fill-rule="evenodd" clip-rule="evenodd" d="M165.462 143H162.538V159.045L151.549 148.055L149.482 150.122L159.898 160.538H145V163.462H160.946L149.482 174.925L151.549 176.992L162.538 166.003V181H165.462V166.102L176.352 176.992L178.419 174.925L166.955 163.462H183V160.538H168.003L178.419 150.122L176.352 148.055L165.462 158.946V143Z" fill="#DFDBDB"/>
</svg>
