<svg width="208" height="156" viewBox="0 0 208 156" fill="none" xmlns="http://www.w3.org/2000/svg">
<path d="M156.988 45.5594C206.881 23.5595 214.522 90.6231 188.002 90.7791C186.204 91.1792 81.3234 90.9458 22.1406 90.7791C-11.3017 90.6935 5.95923 21.7785 58.5493 45.5594C86.8673 -13.7214 142.604 -0.221394 156.988 45.5594Z" stroke="#A8A6A6" stroke-width="10" stroke-linecap="round" stroke-linejoin="round"/>
<rect x="64.5" y="123" width="8" height="33" transform="rotate(30 64.5 123)" fill="#577AF3"/>
<rect x="92.5" y="123" width="8" height="33" transform="rotate(30 92.5 123)" fill="#577AF3"/>
<path fill-rule="evenodd" clip-rule="evenodd" d="M156.462 118H153.538V134.045L142.549 123.055L140.482 125.122L150.898 135.538H136V138.462H151.946L140.482 149.925L142.549 151.992L153.538 141.003V156H156.462V141.102L167.352 151.992L169.419 149.925L157.955 138.462H174V135.538H159.003L169.419 125.122L167.352 123.055L156.462 133.946V118Z" fill="#DFDBDB"/>
</svg>
