<svg width="208" height="145" viewBox="0 0 208 145" fill="none" xmlns="http://www.w3.org/2000/svg">
<path d="M156.988 45.5594C206.881 23.5595 214.522 90.6231 188.002 90.7791C186.204 91.1792 81.3234 90.9458 22.1406 90.7791C-11.3017 90.6935 5.95923 21.7785 58.5493 45.5594C86.8673 -13.7214 142.604 -0.221394 156.988 45.5594Z" stroke="#A8A6A6" stroke-width="10" stroke-linecap="round" stroke-linejoin="round"/>
<path fill-rule="evenodd" clip-rule="evenodd" d="M113.462 107H110.538V123.045L99.5488 112.055L97.4818 114.122L107.898 124.538H93V127.462H108.946L97.4819 138.925L99.5488 140.992L110.538 130.003V145H113.462V130.102L124.352 140.992L126.419 138.925L114.955 127.462H131V124.538H116.003L126.419 114.122L124.352 112.055L113.462 122.946V107Z" fill="#DFDBDB"/>
</svg>
