<svg width="227" height="177" viewBox="0 0 227 177" fill="none" xmlns="http://www.w3.org/2000/svg">
<path fill-rule="evenodd" clip-rule="evenodd" d="M53.6364 0H58.3621V27.7446H53.6364V0ZM78.7419 78C80.8573 73.7426 82.0641 68.8281 82.0641 63.5941C82.0641 47.3549 70.4473 34.1904 56.1173 34.1904C41.7874 34.1904 30.1706 47.3549 30.1706 63.5941C30.1706 68.8281 31.3774 73.7426 33.4928 78H39.3618C36.7341 74.0191 35.1779 69.077 35.1779 63.7231C35.1779 50.5465 44.6037 39.8648 56.2311 39.8648C67.8585 39.8648 77.2844 50.5465 77.2844 63.7231C77.2844 69.077 75.7282 74.0191 73.1005 78H78.7419ZM98.1293 17.5443L94.7159 13.6761L77.4781 33.2106L80.8916 37.0788L98.1293 17.5443ZM12.0682 17.5443L15.4817 13.6762L32.7194 33.2106L29.306 37.0788L12.0682 17.5443ZM29.3403 89.4809L25.9269 85.6127L8.68912 105.147L12.1025 109.015L29.3403 89.4809ZM0 63.8425V58.1742H24.3372V63.8425H0Z" fill="#F4EE55"/>
<path d="M176.044 79.5595C225.876 57.5595 233.508 124.623 207.021 124.779C205.225 125.179 100.473 124.946 41.3623 124.779C7.96101 124.694 25.2008 55.7786 77.7264 79.5595C106.01 20.2786 161.678 33.7786 176.044 79.5595Z" stroke="#A8A6A6" stroke-width="10" stroke-linecap="round" stroke-linejoin="round"/>
<path fill-rule="evenodd" clip-rule="evenodd" d="M99.4615 139H96.5385V155.045L85.5488 144.055L83.4818 146.122L93.8982 156.538H79V159.462H94.9456L83.4819 170.925L85.5488 172.992L96.5385 162.003V177H99.4615V162.102L110.352 172.992L112.419 170.925L100.955 159.462H117V156.538H102.003L112.419 146.122L110.352 144.055L99.4615 154.946V139Z" fill="#DFDBDB"/>
<path fill-rule="evenodd" clip-rule="evenodd" d="M152.462 139H149.538V155.045L138.549 144.055L136.482 146.122L146.898 156.538H132V159.462H147.946L136.482 170.925L138.549 172.992L149.538 162.003V177H152.462V162.102L163.352 172.992L165.419 170.925L153.955 159.462H170V156.538H155.003L165.419 146.122L163.352 144.055L152.462 154.946V139Z" fill="#DFDBDB"/>
</svg>
