<svg width="227" height="184" viewBox="0 0 227 184" fill="none" xmlns="http://www.w3.org/2000/svg">
<path fill-rule="evenodd" clip-rule="evenodd" d="M53.6364 0H58.3621V27.7446H53.6364V0ZM78.7419 78C80.8573 73.7426 82.0641 68.8281 82.0641 63.5941C82.0641 47.3549 70.4473 34.1904 56.1173 34.1904C41.7874 34.1904 30.1706 47.3549 30.1706 63.5941C30.1706 68.8281 31.3774 73.7426 33.4928 78H39.3618C36.7341 74.0191 35.1779 69.077 35.1779 63.7231C35.1779 50.5465 44.6037 39.8648 56.2311 39.8648C67.8585 39.8648 77.2844 50.5465 77.2844 63.7231C77.2844 69.077 75.7282 74.0191 73.1005 78H78.7419ZM98.1293 17.5443L94.7159 13.6761L77.4781 33.2106L80.8916 37.0788L98.1293 17.5443ZM12.0682 17.5443L15.4817 13.6762L32.7194 33.2106L29.306 37.0788L12.0682 17.5443ZM29.3403 89.4809L25.9269 85.6127L8.68912 105.147L12.1025 109.015L29.3403 89.4809ZM0 63.8425V58.1742H24.3372V63.8425H0Z" fill="#F4EE55"/>
<path d="M176.044 79.5595C225.876 57.5595 233.508 124.623 207.021 124.779C205.225 125.179 100.473 124.946 41.3622 124.779C7.96098 124.694 25.2007 55.7786 77.7264 79.5595C106.01 20.2786 161.678 33.7786 176.044 79.5595Z" stroke="#615D5D" stroke-width="10" stroke-linecap="round" stroke-linejoin="round"/>
<path d="M97.5 127L129 79L116.5 120H136.5L129 127L89 164.5L113 127H97.5Z" stroke="#F8BE2B" stroke-width="5"/>
<path d="M98.5 127L130 79L117.5 120H137.5L130 127L90 164.5L114 127H98.5Z" stroke="#F4EE55" stroke-width="3"/>
<path fill-rule="evenodd" clip-rule="evenodd" d="M58.4615 146H55.5385V162.045L44.5488 151.055L42.4818 153.122L52.8982 163.538H38V166.462H53.9456L42.4819 177.925L44.5488 179.992L55.5385 169.003V184H58.4615V169.102L69.3519 179.992L71.4188 177.925L59.9551 166.462H76V163.538H61.0026L71.4189 153.122L69.3519 151.055L58.4615 161.946V146Z" fill="#DFDBDB"/>
</svg>
