<svg width="208" height="150" viewBox="0 0 208 150" fill="none" xmlns="http://www.w3.org/2000/svg">
<path d="M156.988 45.5594C206.881 23.5595 214.522 90.6231 188.002 90.7791C186.204 91.1792 81.3234 90.9458 22.1406 90.7791C-11.3017 90.6935 5.95923 21.7785 58.5493 45.5594C86.8673 -13.7214 142.604 -0.221394 156.988 45.5594Z" stroke="#615D5D" stroke-width="10" stroke-linecap="round" stroke-linejoin="round"/>
<path d="M78.5 93L110 45L97.5 86H117.5L110 93L70 130.5L94 93H78.5Z" stroke="#F8BE2B" stroke-width="5"/>
<path d="M79.5 93L111 45L98.5 86H118.5L111 93L71 130.5L95 93H79.5Z" stroke="#F4EE55" stroke-width="3"/>
<path opacity="0.9" fill-rule="evenodd" clip-rule="evenodd" d="M37.4615 112H34.5385V128.045L23.5488 117.055L21.4818 119.122L31.8982 129.538H17V132.462H32.9456L21.4819 143.925L23.5488 145.992L34.5385 135.003V150H37.4615V135.102L48.3519 145.992L50.4188 143.925L38.9551 132.462H55V129.538H40.0026L50.4189 119.122L48.3519 117.055L37.4615 127.946V112Z" fill="#DFDBDB"/>
</svg>
