<svg width="50" height="50" viewBox="0 0 75 75" fill="none" xmlns="http://www.w3.org/2000/svg">
<path d="M25.7812 53.9062H2.34375C1.05 53.9062 0 54.9563 0 56.25C0 57.5438 1.05 58.5938 2.34375 58.5938H25.7812C27.075 58.5938 28.125 59.6484 28.125 60.9375C28.125 62.2266 27.075 63.2812 25.7812 63.2812C24.4875 63.2812 23.4375 64.3313 23.4375 65.625C23.4375 66.9187 24.4875 67.9688 25.7812 67.9688C29.6578 67.9688 32.8125 64.8141 32.8125 60.9375C32.8125 57.0609 29.6578 53.9062 25.7812 53.9062Z" fill="#607D8B"/>
<path d="M2.34375 30.4688H30.4688C34.3453 30.4688 37.5 27.3141 37.5 23.4375C37.5 19.5609 34.3453 16.4062 30.4688 16.4062C29.175 16.4062 28.125 17.4563 28.125 18.75C28.125 20.0438 29.175 21.0938 30.4688 21.0938C31.7625 21.0938 32.8125 22.1438 32.8125 23.4375C32.8125 24.7312 31.7625 25.7812 30.4688 25.7812H2.34375C1.05 25.7812 0 26.8313 0 28.125C0 29.4187 1.05 30.4688 2.34375 30.4688Z" fill="#607D8B"/>
<path d="M49.2188 21.0938C47.925 21.0938 46.875 22.1438 46.875 23.4375C46.875 24.7313 47.925 25.7812 49.2188 25.7812C53.0953 25.7812 56.25 28.9359 56.25 32.8125C56.25 36.6891 53.0953 39.8438 49.2188 39.8438H2.34375C1.05 39.8438 0 40.8937 0 42.1875C0 43.4813 1.05 44.5312 2.34375 44.5312H49.2188C55.6828 44.5312 60.9375 39.2719 60.9375 32.8125C60.9375 26.3531 55.6828 21.0938 49.2188 21.0938Z" fill="#607D8B"/>
<path d="M46.875 72.6562C49.4638 72.6562 51.5625 70.5576 51.5625 67.9688C51.5625 65.3799 49.4638 63.2812 46.875 63.2812C44.2862 63.2812 42.1875 65.3799 42.1875 67.9688C42.1875 70.5576 44.2862 72.6562 46.875 72.6562Z" fill="#FFC107"/>
<path d="M70.3125 58.5938C72.9013 58.5938 75 56.4951 75 53.9062C75 51.3174 72.9013 49.2188 70.3125 49.2188C67.7237 49.2188 65.625 51.3174 65.625 53.9062C65.625 56.4951 67.7237 58.5938 70.3125 58.5938Z" fill="#FFC107"/>
<path d="M70.3125 25.7812C72.9013 25.7812 75 23.6826 75 21.0938C75 18.5049 72.9013 16.4062 70.3125 16.4062C67.7237 16.4062 65.625 18.5049 65.625 21.0938C65.625 23.6826 67.7237 25.7812 70.3125 25.7812Z" fill="#FFC107"/>
<path d="M51.5625 11.7188C54.1513 11.7188 56.25 9.62008 56.25 7.03125C56.25 4.44241 54.1513 2.34375 51.5625 2.34375C48.9737 2.34375 46.875 4.44241 46.875 7.03125C46.875 9.62008 48.9737 11.7188 51.5625 11.7188Z" fill="#FFC107"/>
</svg>
