<svg width="87" height="125" viewBox="0 0 87 125" fill="none" xmlns="http://www.w3.org/2000/svg">
<mask id="path-1-inside-1" fill="white">
<path fill-rule="evenodd" clip-rule="evenodd" d="M86.2949 4.68909C62.2145 13.3731 45 36.4262 45 63.5C45 89.5929 60.9897 111.951 83.7051 121.311C77.0841 123.699 69.944 125 62.5 125C27.9822 125 0 97.0178 0 62.5C0 27.9822 27.9822 0 62.5 0C70.9249 0 78.9605 1.66697 86.2949 4.68909Z"/>
</mask>
<path d="M86.2949 4.68909L87.6519 8.45189L97.3972 4.93748L87.8188 0.99074L86.2949 4.68909ZM83.7051 121.311L85.062 125.074L94.8074 121.559L85.2289 117.613L83.7051 121.311ZM49 63.5C49 38.1652 65.1069 16.5822 87.6519 8.45189L84.938 0.926286C59.3221 10.164 41 34.6872 41 63.5H49ZM85.2289 117.613C63.9597 108.849 49 87.9166 49 63.5H41C41 91.2691 58.0196 115.054 82.1812 125.009L85.2289 117.613ZM82.3481 117.548C76.1561 119.781 69.4748 121 62.5 121V129C70.4132 129 78.0121 127.616 85.062 125.074L82.3481 117.548ZM62.5 121C30.1913 121 4 94.8087 4 62.5H-4C-4 99.2269 25.7731 129 62.5 129V121ZM4 62.5C4 30.1913 30.1913 4 62.5 4V-4C25.7731 -4 -4 25.7731 -4 62.5H4ZM62.5 4C70.3931 4 77.9116 5.56102 84.7711 8.38743L87.8188 0.99074C80.0095 -2.22707 71.4568 -4 62.5 -4V4Z" fill="#F4EE55" mask="url(#path-1-inside-1)"/>
</svg>
