<svg width="208" height="141" viewBox="0 0 208 141" fill="none" xmlns="http://www.w3.org/2000/svg">
<path d="M156.988 45.5594C206.881 23.5595 214.522 90.6231 188.002 90.7791C186.204 91.1792 81.3234 90.9458 22.1406 90.7791C-11.3017 90.6935 5.95923 21.7785 58.5493 45.5594C86.8673 -13.7214 142.604 -0.221394 156.988 45.5594Z" stroke="#A8A6A6" stroke-width="10" stroke-linecap="round" stroke-linejoin="round"/>
<path fill-rule="evenodd" clip-rule="evenodd" d="M49.4615 103H46.5385V119.045L35.5488 108.055L33.4818 110.122L43.8982 120.538H29V123.462H44.9456L33.4819 134.925L35.5488 136.992L46.5385 126.003V141H49.4615V126.102L60.3519 136.992L62.4188 134.925L50.9551 123.462H67V120.538H52.0026L62.4189 110.122L60.3519 108.055L49.4615 118.946V103Z" fill="#DFDBDB"/>
<rect x="74" y="108" width="96" height="8" fill="#DFDBDB"/>
<rect x="74" y="128" width="74" height="8" fill="#DFDBDB"/>
</svg>
