<svg width="208" height="139" viewBox="0 0 208 139" fill="none" xmlns="http://www.w3.org/2000/svg">
<path d="M156.988 45.5594C206.881 23.5595 214.522 90.6231 188.002 90.7791C186.204 91.1792 81.3234 90.9458 22.1406 90.7791C-11.3017 90.6935 5.95923 21.7785 58.5493 45.5594C86.8673 -13.7214 142.604 -0.221394 156.988 45.5594Z" stroke="#A8A6A6" stroke-width="10" stroke-linecap="round" stroke-linejoin="round"/>
<path fill-rule="evenodd" clip-rule="evenodd" d="M32.4615 101H29.5385V117.045L18.5488 106.055L16.4818 108.122L26.8982 118.538H12V121.462H27.9456L16.4819 132.925L18.5488 134.992L29.5385 124.003V139H32.4615V124.102L43.3519 134.992L45.4188 132.925L33.9551 121.462H50V118.538H35.0026L45.4189 108.122L43.3519 106.055L32.4615 116.946V101Z" fill="#DFDBDB"/>
<path fill-rule="evenodd" clip-rule="evenodd" d="M80.4615 101H77.5385V117.045L66.5488 106.055L64.4818 108.122L74.8982 118.538H60V121.462H75.9456L64.4819 132.925L66.5488 134.992L77.5385 124.003V139H80.4615V124.102L91.3519 134.992L93.4188 132.925L81.9551 121.462H98V118.538H83.0026L93.4189 108.122L91.3519 106.055L80.4615 116.946V101Z" fill="#DFDBDB"/>
<rect x="104" y="104" width="91" height="8" fill="#DFDBDB"/>
<rect x="104" y="120" width="68" height="8" fill="#DFDBDB"/>
</svg>
