<svg width="208" height="155" viewBox="0 0 208 155" fill="none" xmlns="http://www.w3.org/2000/svg">
<path fill-rule="evenodd" clip-rule="evenodd" d="M105.462 117H102.538V133.045L91.5488 122.055L89.4818 124.122L99.8982 134.538H85V137.462H100.946L89.4819 148.925L91.5488 150.992L102.538 140.003V155H105.462V140.102L116.352 150.992L118.419 148.925L106.955 137.462H123V134.538H108.003L118.419 124.122L116.352 122.055L105.462 132.946V117Z" fill="#DFDBDB"/>
<path d="M156.988 45.5594C206.881 23.5595 214.522 90.6231 188.002 90.7791C186.204 91.1792 81.3234 90.9458 22.1406 90.7791C-11.3017 90.6935 5.95923 21.7785 58.5493 45.5594C86.8673 -13.7214 142.604 -0.221394 156.988 45.5594Z" stroke="#A8A6A6" stroke-width="10" stroke-linecap="round" stroke-linejoin="round"/>
</svg>
