<svg width="208" height="143" viewBox="0 0 208 143" fill="none" xmlns="http://www.w3.org/2000/svg">
<path d="M156.988 45.5594C206.881 23.5595 214.522 90.6231 188.002 90.7791C186.204 91.1792 81.3234 90.9458 22.1406 90.7791C-11.3017 90.6935 5.95923 21.7785 58.5493 45.5594C86.8673 -13.7214 142.604 -0.221394 156.988 45.5594Z" stroke="#A8A6A6" stroke-width="10" stroke-linecap="round" stroke-linejoin="round"/>
<path fill-rule="evenodd" clip-rule="evenodd" d="M133.462 105H130.538V121.045L119.549 110.055L117.482 112.122L127.898 122.538H113V125.462H128.946L117.482 136.925L119.549 138.992L130.538 128.003V143H133.462V128.102L144.352 138.992L146.419 136.925L134.955 125.462H151V122.538H136.003L146.419 112.122L144.352 110.055L133.462 120.946V105Z" fill="#DFDBDB"/>
<path fill-rule="evenodd" clip-rule="evenodd" d="M80.4615 105H77.5385V121.045L66.5488 110.055L64.4818 112.122L74.8982 122.538H60V125.462H75.9456L64.4819 136.925L66.5488 138.992L77.5385 128.003V143H80.4615V128.102L91.3519 138.992L93.4188 136.925L81.9551 125.462H98V122.538H83.0026L93.4189 112.122L91.3519 110.055L80.4615 120.946V105Z" fill="#DFDBDB"/>
</svg>
