<svg width="222" height="211" viewBox="0 0 222 211" fill="none" xmlns="http://www.w3.org/2000/svg">
<path fill-rule="evenodd" clip-rule="evenodd" d="M149.462 172H146.538V188.045L135.549 177.055L133.482 179.122L143.898 189.538H129V192.462H144.946L133.482 203.925L135.549 205.992L146.538 195.003V210H149.462V195.102L160.352 205.992L162.419 203.925L150.955 192.462H167V189.538H152.003L162.419 179.122L160.352 177.055L149.462 187.946V172Z" fill="#DFDBDB"/>
<path fill-rule="evenodd" clip-rule="evenodd" d="M200.462 172H197.538V188.045L186.549 177.055L184.482 179.122L194.898 189.538H180V192.462H195.946L184.482 203.925L186.549 205.992L197.538 195.003V210H200.462V195.102L211.352 205.992L213.419 203.925L201.955 192.462H218V189.538H203.003L213.419 179.122L211.352 177.055L200.462 187.946V172Z" fill="#DFDBDB"/>
<rect x="79.5" y="178" width="8" height="33" transform="rotate(30 79.5 178)" fill="#577AF3"/>
<rect x="107.5" y="177" width="8" height="33" transform="rotate(30 107.5 177)" fill="#577AF3"/>
<path fill-rule="evenodd" clip-rule="evenodd" d="M80.6074 2.66325C82.5446 3.2487 84.4422 3.92565 86.2949 4.68909C84.4444 5.35645 82.6343 6.10869 80.8695 6.94109C59.6703 16.9401 45 38.5068 45 63.5C45 74.8622 48.0319 85.5162 53.3308 94.6971L49.6401 96.3021C44.1411 86.6238 41 75.4296 41 63.5C41 38.5029 54.7906 16.7344 75.1705 5.37497C71.0928 4.47486 66.8534 4 62.5 4C30.1913 4 4 30.1913 4 62.5C4 80.3973 12.037 96.4174 24.6988 107.148L20.6411 108.913C7.96628 97.4743 0 80.9175 0 62.5C0 27.9822 27.9822 0 62.5 0C68.7967 0 74.8759 0.931146 80.6074 2.66325Z" fill="#F4EE55"/>
<path d="M170.988 99.5594C220.881 77.5595 228.522 144.623 202.002 144.779C200.204 145.179 95.3234 144.946 36.1406 144.779C2.69832 144.693 19.9592 75.7785 72.5493 99.5594C100.867 40.2786 156.604 53.7786 170.988 99.5594Z" stroke="#A8A6A6" stroke-width="10" stroke-linecap="round" stroke-linejoin="round"/>
</svg>
