<svg width="222" height="197" viewBox="0 0 222 197" fill="none" xmlns="http://www.w3.org/2000/svg">
<path fill-rule="evenodd" clip-rule="evenodd" d="M94.4615 159H91.5385V175.045L80.5488 164.055L78.4818 166.122L88.8982 176.538H74V179.462H89.9456L78.4819 190.925L80.5488 192.992L91.5385 182.003V197H94.4615V182.102L105.352 192.992L107.419 190.925L95.9551 179.462H112V176.538H97.0026L107.419 166.122L105.352 164.055L94.4615 174.946V159Z" fill="#DFDBDB"/>
<path fill-rule="evenodd" clip-rule="evenodd" d="M147.462 159H144.538V175.045L133.549 164.055L131.482 166.122L141.898 176.538H127V179.462H142.946L131.482 190.925L133.549 192.992L144.538 182.003V197H147.462V182.102L158.352 192.992L160.419 190.925L148.955 179.462H165V176.538H150.003L160.419 166.122L158.352 164.055L147.462 174.946V159Z" fill="#DFDBDB"/>
<path fill-rule="evenodd" clip-rule="evenodd" d="M80.6074 2.66325C82.5446 3.2487 84.4422 3.92565 86.2949 4.68909C84.4444 5.35645 82.6343 6.10869 80.8695 6.94109C59.6703 16.9401 45 38.5068 45 63.5C45 74.8622 48.0319 85.5162 53.3308 94.6971L49.6401 96.3021C44.1411 86.6238 41 75.4296 41 63.5C41 38.5029 54.7906 16.7344 75.1705 5.37497C71.0928 4.47486 66.8534 4 62.5 4C30.1913 4 4 30.1913 4 62.5C4 80.3973 12.037 96.4174 24.6988 107.148L20.6411 108.913C7.96628 97.4743 0 80.9175 0 62.5C0 27.9822 27.9822 0 62.5 0C68.7967 0 74.8759 0.931146 80.6074 2.66325Z" fill="#F4EE55"/>
<path d="M170.988 99.5594C220.881 77.5595 228.522 144.623 202.002 144.779C200.204 145.179 95.3234 144.946 36.1406 144.779C2.69832 144.693 19.9592 75.7785 72.5493 99.5594C100.867 40.2786 156.604 53.7786 170.988 99.5594Z" stroke="#A8A6A6" stroke-width="10" stroke-linecap="round" stroke-linejoin="round"/>
</svg>
