<svg width="208" height="150" viewBox="0 0 208 150" fill="none" xmlns="http://www.w3.org/2000/svg">
<path opacity="0.6" fill-rule="evenodd" clip-rule="evenodd" d="M39.4615 112H36.5385V128.045L25.5488 117.055L23.4818 119.122L33.8982 129.538H19V132.462H34.9456L23.4819 143.925L25.5488 145.992L36.5385 135.003V150H39.4615V135.102L50.3519 145.992L52.4188 143.925L40.9551 132.462H57V129.538H42.0026L52.4189 119.122L50.3519 117.055L39.4615 127.946V112Z" fill="#DFDBDB"/>
<path d="M156.988 45.5594C206.881 23.5595 214.522 90.6231 188.002 90.7791C186.204 91.1792 81.3234 90.9458 22.1406 90.7791C-11.3017 90.6935 5.95923 21.7785 58.5493 45.5594C86.8673 -13.7214 142.604 -0.221394 156.988 45.5594Z" stroke="#615D5D" stroke-width="10" stroke-linecap="round" stroke-linejoin="round"/>
<path d="M80.5 93L112 45L99.5 86H119.5L112 93L72 130.5L96 93H80.5Z" stroke="#F8BE2B" stroke-width="5"/>
<path d="M81.5 93L113 45L100.5 86H120.5L113 93L73 130.5L97 93H81.5Z" stroke="#F4EE55" stroke-width="3"/>
</svg>
